<?xml version="1.0" encoding="UTF-8"?>
<svg width="23px" height="20px" viewBox="0 0 23 20" version="1.1" xmlns="http://www.w3.org/2000/svg" xmlns:xlink="http://www.w3.org/1999/xlink">
    <!-- Generator: Sketch 50 (54983) - http://www.bohemiancoding.com/sketch -->
    <title>twitter_icon</title>
    <desc>Created with Sketch.</desc>
    <defs></defs>
    <g id="Page-1" stroke="none" stroke-width="1" fill="none" fill-rule="evenodd">
        <g id="Salt-Story-Desktop" transform="translate(-308.000000, -1262.000000)" fill-rule="nonzero" stroke="#FFFFFF">
            <g id="Shaerd" transform="translate(279.000000, 1128.000000)">
                <path d="M39.7196598,140.770375 C37.7440786,135.486693 44.664201,133.137382 47.2833844,136.708605 C47.2833844,136.708605 48.2987054,136.672191 50.1516439,135.67443 C50.1516439,135.67443 49.709813,137.085295 48.2844632,138.018966 C48.5695494,137.785042 49.3676773,138.011926 50.6790088,137.427592 C50.6790088,137.427592 49.8523156,138.767408 48.5695494,139.665312 C48.5695494,139.665312 48.541065,141.674995 48.2417367,142.929277 C47.9424084,144.183559 47.4415805,147.72126 44.4484592,150.172774 C41.4553379,152.624369 37.3095773,153.120278 35.2428444,152.977694 C33.1761924,152.835191 30.6391442,152.051306 29,151.039302 C29,151.039302 32.7486036,151.438407 35.5136883,149.15788 C35.5136883,149.15788 32.7201193,149.28614 31.3945456,146.064982 C31.3945456,146.064982 32.3494992,146.235969 33.3757446,145.950964 C33.3757446,145.950964 29.8551775,145.309581 29.812451,141.518251 C29.812451,141.518251 30.9669568,142.088342 31.8221343,142.031373 C31.8221343,142.031373 28.458393,139.46576 30.5108837,136.144826 C30.5108837,136.144826 33.8772146,140.606914 39.7196598,140.770375 Z" id="twitter_icon"></path>
            </g>
        </g>
    </g>
</svg>