<?xml version="1.0" encoding="UTF-8"?>
<svg width="25px" height="22px" viewBox="0 0 25 22" version="1.1" xmlns="http://www.w3.org/2000/svg" xmlns:xlink="http://www.w3.org/1999/xlink">
    <!-- Generator: Sketch 50 (54983) - http://www.bohemiancoding.com/sketch -->
    <title>twitter_icon</title>
    <desc>Created with Sketch.</desc>
    <defs></defs>
    <g id="Page-1" stroke="none" stroke-width="1" fill="none" fill-rule="evenodd">
        <g id="Verticals" transform="translate(-620.000000, -2337.000000)" fill-rule="nonzero" stroke="#454545">
            <g id="retail" transform="translate(0.000000, 1814.000000)">
                <g id="1" transform="translate(148.000000, 213.000000)">
                    <path d="M483.867325,317.411528 C481.680234,311.54077 489.341237,308.930424 492.240834,312.898451 C492.240834,312.898451 493.364857,312.85799 495.416175,311.749366 C495.416175,311.749366 494.92704,313.316994 493.34909,314.354407 C493.664698,314.094491 494.548275,314.346584 496,313.697325 C496,313.697325 495.0848,315.186009 493.664698,316.18368 C493.664698,316.18368 493.633164,318.416662 493.301789,319.810308 C492.970415,321.203955 492.415967,325.134733 489.102397,327.858638 C485.788827,330.582632 481.199215,331.133642 478.911214,330.975216 C476.623303,330.816879 473.814634,329.945895 472,328.821447 C472,328.821447 476.149935,329.264897 479.211055,326.730977 C479.211055,326.730977 476.118402,326.873489 474.65091,323.294425 C474.65091,323.294425 475.708102,323.48441 476.844219,323.167738 C476.844219,323.167738 472.946734,322.45509 472.899433,318.242501 C472.899433,318.242501 474.177543,318.875936 475.124277,318.812637 C475.124277,318.812637 471.400408,315.961955 473.672641,312.272029 C473.672641,312.272029 477.399377,317.229904 483.867325,317.411528 Z" id="twitter_icon"></path>
                </g>
            </g>
        </g>
    </g>
</svg>