<?xml version="1.0" encoding="UTF-8"?>
<svg width="26px" height="22px" viewBox="0 0 26 22" version="1.1" xmlns="http://www.w3.org/2000/svg" xmlns:xlink="http://www.w3.org/1999/xlink">
    <!-- Generator: Sketch 50 (54983) - http://www.bohemiancoding.com/sketch -->
    <title>twitter_icon</title>
    <desc>Created with Sketch.</desc>
    <defs></defs>
    <g id="Page-1" stroke="none" stroke-width="1" fill="none" fill-rule="evenodd">
        <g id="Verticals" transform="translate(-1011.000000, -2337.000000)" fill-rule="nonzero" stroke="#FFFFFF">
            <g id="retail" transform="translate(0.000000, 1814.000000)">
                <g id="2" transform="translate(929.000000, 213.000000)">
                    <g id="text" transform="translate(39.000000, 37.000000)">
                        <g id="Group-20">
                            <path d="M55.8023535,280.63945 C53.6152632,274.768692 61.2762656,272.158346 64.1758632,276.126373 C64.1758632,276.126373 65.2998861,276.085912 67.3512034,274.977289 C67.3512034,274.977289 66.8620693,276.544916 65.2841192,277.582329 C65.5997271,277.322413 66.483304,277.574506 67.9350288,276.925247 C67.9350288,276.925247 67.0198285,278.413931 65.5997271,279.411602 C65.5997271,279.411602 65.5681932,281.644584 65.2368183,283.03823 C64.9054434,284.431877 64.350996,288.362655 61.0374261,291.08656 C57.7238562,293.810554 53.1342435,294.361564 50.8462426,294.203138 C48.5583314,294.044801 45.7496626,293.173817 43.9350288,292.049369 C43.9350288,292.049369 48.0849643,292.492819 51.1460836,289.958899 C51.1460836,289.958899 48.0534303,290.101411 46.5859385,286.522347 C46.5859385,286.522347 47.6431311,286.712332 48.779248,286.39566 C48.779248,286.39566 44.8817631,285.683012 44.8344622,281.470423 C44.8344622,281.470423 46.1125714,282.103858 47.0593056,282.040559 C47.0593056,282.040559 43.3354365,279.189878 45.6076703,275.499951 C45.6076703,275.499951 49.3344062,280.457826 55.8023535,280.63945 Z" id="twitter_icon"></path>
                        </g>
                    </g>
                </g>
            </g>
        </g>
    </g>
</svg>